<svg width="32" height="32" viewBox="0 0 32 32" fill="none" xmlns="http://www.w3.org/2000/svg">
<path d="M16.1329 0.330566C7.63184 0.330566 0.474121 7.22264 0.474121 15.7268V31.6694L16.13 31.6543C24.631 31.6543 31.5261 24.4966 31.5261 15.9955C31.5261 7.49433 24.6251 0.330566 16.1329 0.330566Z" fill="#231F20"/>
<path d="M16.2838 6.28979C14.6309 6.29077 13.0066 6.7209 11.5699 7.53809C10.1331 8.35528 8.93325 9.53152 8.08761 10.9517C7.24198 12.3718 6.77958 13.9871 6.74569 15.6397C6.71179 17.2922 7.10756 18.9252 7.89427 20.3788L6.16748 25.9335L12.3682 24.5327C13.6658 25.1174 15.0776 25.4044 16.5004 25.3727C17.9232 25.341 19.3208 24.9915 20.5911 24.3498C21.8613 23.708 22.972 22.7904 23.8417 21.6639C24.7113 20.5374 25.318 19.2306 25.6173 17.8393C25.9166 16.448 25.9009 15.0075 25.5714 13.623C25.2419 12.2385 24.607 10.9453 23.7129 9.83797C22.819 8.73067 21.6886 7.83735 20.4048 7.22341C19.1208 6.60947 17.7159 6.29048 16.2927 6.28979H16.2838Z" fill="#FFF9AE"/>
<path d="M23.855 10.0271C25.1413 11.7136 25.8289 13.7806 25.809 15.9016C25.7892 18.0225 25.0631 20.0763 23.7456 21.7384C22.4279 23.4006 20.5941 24.5763 18.5336 25.0795C16.4731 25.5828 14.3038 25.3851 12.3682 24.5177L6.16748 25.9366L12.4799 25.1908C14.5014 26.375 16.8877 26.7739 19.1843 26.3116C21.481 25.8492 23.5272 24.5581 24.9329 22.6841C26.3387 20.81 27.0058 18.4843 26.8069 16.1501C26.6082 13.8159 25.5574 11.6364 23.855 10.0271Z" fill="#00AEEF"/>
<path d="M22.098 8.26721C23.5532 9.81017 24.4529 11.7941 24.6546 13.9054C24.8563 16.0168 24.3485 18.1351 23.2118 19.9257C22.0749 21.7162 20.3738 23.0769 18.3773 23.7926C16.3807 24.5084 14.2026 24.5384 12.1871 23.8778L6.16748 25.9367L12.3682 24.5328C14.5015 25.4965 16.9147 25.6422 19.1483 24.942C21.3821 24.2419 23.2804 22.7451 24.482 20.7362C25.6837 18.7274 26.1049 16.3467 25.6651 14.0476C25.2256 11.7484 23.956 9.69108 22.098 8.26721Z" fill="#00A94F"/>
<path d="M8.46483 20.5902C7.62629 18.5689 7.50792 16.3209 8.12959 14.2227C8.75124 12.1245 10.0751 10.3038 11.8794 9.06553C13.6838 7.82728 15.8588 7.24679 18.0401 7.42131C20.2215 7.59584 22.2766 8.5148 23.8611 10.0242C22.4029 8.11066 20.2758 6.81849 17.9057 6.40636C15.5355 5.99422 13.0971 6.49253 11.0786 7.80154C9.06018 9.11053 7.61063 11.1336 7.02017 13.4658C6.42971 15.798 6.74191 18.267 7.89427 20.3789L6.16748 25.9336L8.46483 20.5902Z" fill="#F15D22"/>
<path d="M7.89455 20.3789C6.85401 18.4569 6.50476 16.2358 6.90521 14.0872C7.30566 11.9386 8.43153 9.99258 10.0946 8.57446C11.7577 7.15633 13.8572 6.35207 16.0421 6.29614C18.227 6.2402 20.3649 6.93597 22.0983 8.26713C20.4459 6.52716 18.1985 5.47361 15.8041 5.31641C13.4096 5.15921 11.0438 5.90988 9.17804 7.41887C7.31227 8.92785 6.08349 11.0844 5.73654 13.4587C5.38957 15.8332 5.94991 18.2511 7.30588 20.2308L6.17078 25.9366L7.89455 20.3789Z" fill="#E31B23"/>
</svg>
